<?xml version="1.0" standalone="no"?>
<!DOCTYPE svg PUBLIC "-//W3C//DTD SVG 20010904//EN"
 "http://www.w3.org/TR/2001/REC-SVG-20010904/DTD/svg10.dtd">
<svg version="1.0" xmlns="http://www.w3.org/2000/svg"
 width="732.000000pt" height="752.000000pt" viewBox="0 0 732.000000 752.000000"
 preserveAspectRatio="xMidYMid meet">

<g transform="translate(0.000000,752.000000) scale(0.100000,-0.100000)"
fill="#000000" stroke="none">
<path d="M0 6417 l0 -1103 113 -29 c139 -35 175 -38 186 -16 4 9 11 68 15 132
5 91 3 127 -10 170 -22 75 -23 75 -50 32 -13 -21 -23 -36 -24 -33 0 8 58 162
64 168 13 12 14 -5 4 -43 -10 -37 -8 -46 26 -113 22 -43 44 -110 56 -165 25
-124 63 -221 86 -226 11 -2 24 -7 30 -12 14 -12 77 -15 92 -5 7 4 12 25 12 47
0 40 20 54 37 25 4 -8 20 -17 35 -21 22 -6 27 -3 30 17 2 12 11 24 20 26 33 6
128 -50 174 -105 68 -79 85 -74 183 58 28 38 41 66 41 87 0 19 5 32 13 32 21
0 167 147 167 169 0 4 49 61 110 125 87 93 110 123 115 153 10 60 13 63 45 63
39 0 121 41 115 58 -2 6 1 12 8 12 7 0 26 12 42 28 17 15 42 33 57 41 15 8 36
22 45 31 10 9 34 25 53 36 19 10 38 24 42 30 4 6 26 24 50 40 24 16 54 39 67
51 13 13 30 23 37 23 8 0 14 4 14 10 0 8 73 54 155 97 17 9 37 20 45 24 8 5
34 18 58 31 24 12 69 46 100 75 31 29 61 53 67 53 26 0 195 43 195 50 0 5 -38
11 -85 15 -47 4 -84 9 -82 11 5 6 217 20 472 34 274 14 351 25 402 58 20 12
28 12 62 -1 27 -11 77 -17 158 -18 136 -1 354 -14 498 -29 55 -5 196 -17 314
-25 118 -8 216 -17 218 -19 2 -2 -33 -5 -77 -8 -94 -5 -124 -22 -60 -33 23 -4
54 -13 68 -21 15 -8 33 -14 40 -14 6 0 12 -10 12 -22 0 -23 83 -108 105 -108
7 0 15 -3 17 -7 3 -7 40 -28 163 -91 17 -8 32 -19 35 -22 3 -4 22 -13 42 -19
21 -7 40 -17 44 -22 3 -6 30 -21 60 -35 30 -13 54 -28 54 -33 0 -5 17 -16 38
-24 21 -8 44 -22 51 -31 8 -9 20 -16 27 -16 8 0 14 -4 14 -10 0 -5 7 -10 15
-10 8 0 15 -4 15 -10 0 -5 6 -10 14 -10 8 0 16 -4 18 -10 2 -5 26 -25 53 -43
28 -19 49 -39 47 -46 -2 -9 3 -11 13 -7 10 3 14 2 10 -5 -4 -6 2 -13 14 -16
12 -3 21 -9 21 -14 0 -5 11 -14 25 -21 13 -6 22 -16 18 -21 -4 -6 0 -8 8 -5 8
3 33 -14 58 -39 24 -23 41 -43 38 -43 -3 0 15 -19 40 -42 25 -24 57 -56 71
-71 91 -97 155 -156 165 -150 5 3 7 1 4 -4 -4 -6 2 -18 13 -28 30 -27 46 -7
30 37 -11 30 -9 40 25 110 42 90 55 103 55 55 0 -22 6 -37 15 -41 8 -3 15 -11
15 -19 0 -7 5 -18 12 -25 10 -10 20 -3 50 30 l37 43 -15 -49 c-18 -64 -18 -85
4 -93 9 -4 50 -31 90 -59 55 -40 86 -55 120 -59 85 -11 117 -18 105 -22 -7 -3
-13 -14 -13 -25 0 -17 4 -19 25 -14 18 5 27 2 32 -10 4 -12 8 -13 14 -3 4 8
11 10 16 6 10 -11 -17 -26 -34 -20 -11 4 -12 -5 -7 -46 4 -34 2 -51 -5 -51 -6
0 -11 -10 -10 -22 0 -13 -3 -35 -6 -49 -5 -19 -2 -28 9 -32 25 -10 76 25 83
56 3 15 11 27 18 27 7 0 18 6 25 14 6 8 18 12 26 9 9 -3 14 2 14 15 0 26 -58
85 -77 78 -8 -3 -11 -2 -8 4 7 11 -32 33 -45 25 -5 -3 -8 3 -7 14 1 15 6 17
28 11 44 -13 71 -31 126 -83 29 -27 53 -44 53 -38 0 7 16 45 35 84 30 60 35
81 33 129 -1 38 2 62 11 70 11 11 12 9 7 -8 -5 -18 5 -34 51 -81 57 -58 147
-130 190 -152 24 -12 105 -14 177 -5 l46 7 0 1123 0 1124 -3660 0 -3660 0 0
-1103z m2203 1051 c3 -13 9 -34 13 -48 7 -22 6 -24 -9 -11 -9 7 -17 19 -17 26
0 7 -7 18 -15 25 -20 17 -19 30 4 30 11 0 21 -9 24 -22z m247 -188 c0 -28 -11
-51 -21 -44 -10 6 -12 57 -3 67 11 10 24 -3 24 -23z m406 -221 c16 -52 18 -79
4 -79 -5 0 -12 16 -16 35 -3 19 -10 38 -15 41 -5 3 -9 17 -9 30 0 39 21 24 36
-27z m-2725 9 c50 -39 64 -60 56 -82 -9 -24 -39 -20 -80 12 -42 32 -62 64 -54
86 9 24 31 19 78 -16z m5689 -7 c0 -30 -51 -141 -62 -135 -9 6 -5 31 12 69 4
11 14 35 22 53 14 36 28 42 28 13z m-950 -8 c0 -28 -32 -157 -41 -167 -18 -20
-19 4 -4 80 9 44 18 85 20 92 7 18 25 15 25 -5z m1320 -20 c-1 -13 -29 -59
-30 -48 0 21 13 55 21 55 5 0 9 -3 9 -7z m-5297 -89 c30 -50 33 -64 14 -64
-14 0 -67 83 -67 105 0 25 24 6 53 -41z m5252 -37 c-4 -15 -13 -31 -21 -37
-10 -9 -9 -2 3 29 17 45 28 49 18 8z m1141 -263 c-4 -9 -9 -15 -11 -12 -3 3
-3 13 1 22 4 9 9 15 11 12 3 -3 3 -13 -1 -22z m-7138 -69 c24 -31 42 -61 40
-67 -4 -10 -98 102 -98 116 0 17 20 0 58 -49z m6250 -398 c-52 -46 -118 -83
-118 -65 0 15 98 108 125 118 40 15 36 -15 -7 -53z m-244 -426 c7 -10 -43 -25
-52 -16 -7 7 18 25 35 25 6 0 14 -4 17 -9z"/>
<path d="M3170 6335 c-40 -8 -91 -21 -112 -31 -31 -14 -44 -15 -84 -5 -33 8
-50 9 -57 2 -6 -6 -21 -11 -33 -11 -32 0 -91 -35 -144 -86 -25 -24 -66 -52
-91 -63 -42 -17 -48 -23 -54 -60 -4 -23 -11 -41 -16 -41 -21 0 -69 -64 -69
-91 0 -23 -5 -29 -21 -29 -15 0 -25 -11 -36 -40 -14 -34 -25 -44 -82 -71 -138
-64 -175 -86 -269 -164 -53 -43 -102 -84 -108 -90 -6 -5 -33 -28 -60 -50 -101
-83 -140 -126 -178 -196 -21 -40 -55 -94 -75 -120 -64 -83 -161 -228 -161
-240 0 -4 4 -11 10 -14 17 -11 11 -48 -18 -100 -45 -81 -48 -87 -76 -152 -31
-76 -76 -181 -87 -208 -43 -99 -153 -527 -144 -556 18 -56 14 -91 -15 -118
l-28 -26 -7 -185 c-6 -165 -4 -197 15 -295 31 -162 49 -217 80 -250 23 -24 27
-34 18 -48 -12 -22 6 -98 32 -137 10 -14 23 -43 30 -65 19 -60 73 -156 168
-294 46 -69 87 -132 90 -140 3 -9 8 -18 11 -21 11 -10 47 -65 54 -82 3 -10 2
-18 -4 -18 -14 0 26 -56 77 -108 47 -47 138 -220 128 -245 -5 -14 68 -120 130
-185 50 -53 163 -122 231 -141 73 -21 159 -77 163 -109 4 -27 78 -81 190 -139
48 -25 96 -53 107 -63 11 -10 38 -25 60 -35 22 -9 49 -24 60 -34 35 -32 76
-47 220 -80 190 -43 223 -50 275 -57 25 -4 51 -11 58 -17 8 -6 17 -5 27 3 13
10 19 9 36 -6 16 -14 22 -15 28 -5 7 11 12 10 29 0 19 -12 23 -11 35 5 12 17
14 17 20 2 8 -19 38 -21 55 -4 10 10 15 10 22 -1 7 -12 12 -12 32 1 17 11 29
13 41 7 11 -6 24 -6 36 0 10 6 31 10 47 10 53 0 109 6 119 12 6 4 48 7 95 8
47 1 108 8 135 16 88 25 229 76 235 83 3 4 35 22 72 40 37 19 95 56 129 82 33
27 69 52 80 55 10 4 19 10 19 15 0 5 8 11 18 14 9 4 39 26 65 50 27 24 86 65
130 91 45 26 91 56 103 67 11 10 47 23 80 29 138 25 128 20 138 66 6 28 15 45
27 48 26 9 25 45 -1 45 -37 0 -23 42 31 95 29 28 64 68 79 90 15 22 38 50 51
61 49 44 202 216 230 257 16 24 38 52 49 62 11 10 20 24 20 30 0 7 7 18 15 25
8 7 13 15 11 19 -3 4 13 29 35 56 21 28 39 53 39 58 0 4 11 25 25 47 14 22 25
51 25 65 0 15 11 41 25 59 14 18 25 38 25 43 0 14 128 461 135 474 12 18 45
148 60 234 17 100 19 235 4 345 -5 41 -14 149 -18 240 -8 159 -10 170 -54 300
-25 74 -48 149 -52 165 -16 74 -89 236 -149 330 -35 55 -134 176 -163 200 -16
13 -83 143 -83 161 0 8 -4 14 -10 14 -5 0 -10 5 -10 10 0 10 -36 59 -143 194
-21 28 -50 71 -63 98 -13 26 -31 48 -39 48 -9 0 -38 18 -66 39 -59 48 -212
141 -229 141 -30 0 -155 82 -143 94 7 6 -25 46 -37 46 -4 0 -56 23 -116 51
-82 39 -122 52 -164 54 -86 4 -106 16 -114 67 -6 34 -17 52 -57 90 -70 65
-214 134 -347 165 -59 13 -120 28 -137 33 -16 5 -75 14 -131 21 -85 11 -110
10 -162 -2 -40 -10 -60 -12 -59 -5 3 17 -254 17 -343 1z m341 -642 c39 -60 75
-110 79 -113 9 -7 79 -113 115 -175 47 -80 50 -85 102 -190 112 -223 138 -373
90 -515 -26 -76 -48 -129 -70 -165 -7 -11 -21 -35 -31 -53 -19 -38 -28 -36
-31 5 -3 50 -5 53 -23 53 -10 0 -28 -7 -41 -16 -19 -14 -25 -14 -31 -4 -6 10
-40 15 -111 17 -57 1 -110 5 -119 9 -22 10 -80 12 -80 2 0 -11 -77 -10 -84 0
-6 11 -46 9 -63 -1 -8 -5 -13 -4 -13 2 0 6 -7 11 -15 11 -8 0 -15 5 -15 11 0
6 -7 8 -16 5 -8 -3 -12 -2 -9 4 3 6 -4 10 -15 10 -16 0 -20 -5 -16 -15 3 -9 0
-15 -10 -15 -12 0 -15 6 -10 25 4 14 4 25 1 25 -3 0 -10 -11 -15 -25 -5 -14
-14 -25 -20 -25 -6 0 2 19 18 43 118 171 372 690 372 758 0 11 4 19 9 19 11 0
23 76 27 184 2 49 5 95 8 103 3 8 -1 16 -9 19 -8 4 -15 14 -15 24 0 11 -9 35
-21 54 -43 73 -8 33 62 -71z m666 -1070 c6 -16 23 -55 37 -88 51 -117 64 -247
40 -386 -5 -31 -9 -35 -30 -31 -13 2 -30 0 -37 -5 -14 -11 -112 -11 -123 0 -4
4 -16 -1 -27 -10 -19 -17 -19 -17 -12 7 7 22 6 23 -9 11 -24 -20 -21 -12 33
96 65 131 64 127 100 308 5 22 6 59 4 83 -6 48 7 55 24 15z m454 -468 c76
-117 99 -206 98 -368 0 -62 -4 -103 -8 -93 -7 19 -75 46 -118 46 -13 0 -23 4
-23 9 0 5 -7 12 -16 15 -8 3 -12 2 -9 -4 3 -6 1 -10 -5 -10 -6 0 -15 10 -20
23 -7 17 -9 18 -9 5 -1 -10 -5 -18 -10 -18 -5 0 -2 21 6 48 18 57 34 133 39
187 1 22 6 56 10 75 12 64 13 155 2 139 -7 -11 -9 -9 -5 9 3 12 1 22 -4 22 -5
0 -9 7 -9 17 0 16 26 -17 81 -102z m786 -891 c-3 -20 -13 -44 -21 -53 -8 -9
-17 -28 -21 -42 -5 -21 -2 -27 13 -31 16 -4 28 7 58 53 51 79 69 91 123 77 50
-13 81 -48 81 -93 0 -50 -27 -128 -60 -173 -25 -36 -36 -42 -65 -42 -19 0 -35
2 -35 4 0 20 54 116 76 135 26 23 27 24 9 37 -30 22 -48 16 -74 -24 -35 -53
-82 -102 -99 -102 -28 0 -80 32 -91 56 -39 86 19 234 93 234 16 0 18 -5 13
-36z m-3533 -37 c9 -23 16 -52 16 -64 0 -19 -5 -22 -37 -21 -37 2 -178 -45
-188 -62 -3 -5 2 -28 11 -52 31 -84 31 -88 -9 -88 -40 0 -50 15 -93 142 -13
39 -32 76 -41 83 -16 12 -10 15 42 31 91 26 259 71 271 73 6 0 19 -18 28 -42z
m126 -313 c28 -53 49 -103 46 -110 -3 -8 -18 -14 -33 -14 -22 0 -33 9 -51 40
-14 26 -30 40 -43 40 -30 0 -34 -27 -10 -74 11 -24 21 -48 21 -55 0 -21 -39
-11 -57 14 -10 14 -26 36 -35 48 l-17 22 -21 -21 -21 -20 36 -59 c19 -32 35
-62 35 -67 0 -4 -11 -10 -25 -14 -28 -7 -34 -24 -8 -24 9 0 78 18 154 40 76
22 144 40 151 40 12 0 84 -88 94 -115 3 -6 -8 -25 -24 -42 -15 -18 -38 -51
-50 -75 -12 -24 -34 -61 -47 -83 -14 -22 -28 -48 -31 -57 -9 -26 -29 -22 -57
12 -14 17 -30 30 -36 30 -19 0 -22 20 -7 41 17 25 12 44 -23 82 -18 20 -33 27
-54 25 -21 -2 -33 3 -41 16 -6 11 -21 30 -33 43 -13 13 -23 32 -23 41 0 10
-11 33 -24 52 -13 20 -45 73 -70 120 l-47 84 23 18 c13 10 28 18 33 18 6 1 57
23 115 50 58 27 110 49 117 49 6 1 34 -42 63 -95z m3300 76 c0 -5 6 -10 13
-10 6 0 21 -15 33 -32 19 -30 25 -33 77 -33 30 -1 63 -7 71 -14 9 -8 16 -10
16 -5 0 4 5 3 11 -3 8 -8 7 -25 -6 -62 -9 -28 -20 -53 -25 -56 -4 -3 -29 4
-55 15 -57 24 -52 25 -66 -2 -10 -19 -7 -25 30 -57 l41 -36 -18 -35 c-11 -19
-17 -41 -15 -47 3 -7 -2 -16 -11 -19 -10 -4 -63 25 -145 79 -71 47 -131 89
-134 94 -6 11 84 171 116 206 25 26 67 37 67 17z m-180 -307 c0 -8 -10 -31
-22 -52 -42 -73 9 -100 57 -31 16 22 33 39 39 37 20 -6 18 -49 -3 -78 -24 -32
-26 -50 -9 -67 21 -21 32 -14 73 48 22 33 42 60 45 60 3 0 11 -14 19 -31 12
-28 12 -36 -3 -64 -10 -18 -33 -50 -52 -71 -18 -21 -41 -53 -49 -71 -9 -18
-20 -35 -25 -38 -5 -3 -35 18 -67 46 -112 100 -183 168 -183 174 0 4 19 30 43
60 23 29 55 69 70 90 28 35 30 36 48 19 10 -9 19 -23 19 -31z m-186 -197 c4
-19 13 -39 21 -46 8 -7 15 -16 15 -21 0 -5 25 -48 56 -95 62 -95 62 -84 -8
-157 l-37 -39 -50 47 c-71 67 -94 45 -46 -42 l26 -45 -51 -49 c-28 -27 -54
-49 -58 -49 -11 0 -242 225 -242 236 0 5 10 15 23 23 12 8 32 20 44 28 20 14
23 12 45 -21 21 -31 98 -86 98 -68 0 4 -16 36 -35 72 l-36 65 48 42 c42 37 49
40 58 25 16 -27 62 -69 77 -69 7 0 22 -4 33 -9 15 -6 10 4 -18 41 -66 87 -67
92 -24 131 20 19 41 34 46 34 5 0 12 -15 15 -34z m-2547 -69 c93 -82 115 -110
111 -144 -2 -22 -14 -32 -55 -53 -50 -24 -53 -27 -48 -57 3 -18 1 -34 -6 -38
-6 -4 -17 -23 -25 -41 -8 -19 -21 -34 -28 -34 -18 0 -96 51 -96 62 0 5 12 30
27 55 26 44 26 46 8 59 -25 19 -27 18 -60 -16 -16 -16 -35 -30 -42 -30 -7 0
-32 15 -57 33 l-44 32 116 118 c64 64 119 117 122 117 3 0 37 -29 77 -63z
m254 -193 l59 -35 -15 -29 c-17 -33 -20 -106 -5 -115 8 -5 63 68 73 99 3 10
87 -20 87 -32 0 -3 -13 -26 -28 -51 -15 -25 -45 -85 -66 -133 -21 -48 -44 -89
-51 -92 -7 -2 -40 8 -74 24 -56 27 -61 32 -61 61 0 17 5 49 12 71 9 30 9 41
-1 51 -10 9 -17 6 -35 -17 -11 -16 -30 -40 -41 -53 l-20 -24 -48 21 c-44 19
-46 23 -36 43 26 49 171 247 181 247 6 0 37 -16 69 -36z m1887 -58 c47 -25
107 -110 117 -167 12 -67 -38 -138 -120 -169 -44 -17 -122 -14 -150 4 -51 34
-84 144 -65 216 12 43 53 83 115 111 49 22 68 23 103 5z m-1582 -92 c63 -21
68 -27 54 -55 -7 -13 -32 -77 -56 -143 -24 -65 -46 -121 -49 -124 -2 -2 -32 1
-65 9 -47 10 -59 17 -55 29 7 19 120 300 121 300 0 0 23 -7 50 -16z m1260 -40
c12 -3 32 -25 44 -49 20 -39 21 -47 10 -81 -15 -45 -27 -59 -60 -69 -50 -15
-70 -34 -70 -68 0 -18 5 -38 12 -45 9 -9 -2 -17 -45 -37 -32 -13 -60 -26 -63
-27 -9 -5 -30 63 -48 159 -10 48 -21 103 -26 122 -10 39 -6 51 18 51 9 0 53
11 97 25 87 26 99 28 131 19z m-1053 -25 c56 -14 62 -20 58 -75 -4 -73 41
-119 53 -54 3 17 9 44 12 60 5 28 8 30 51 30 l46 0 -7 -42 c-11 -66 -35 -251
-36 -267 0 -11 -15 -12 -77 -6 -43 4 -81 12 -85 19 -4 6 -8 37 -8 69 0 44 -4
59 -16 64 -22 8 -41 -18 -49 -68 l-7 -39 -59 0 c-32 0 -59 4 -59 8 0 6 68 228
96 310 2 7 12 11 21 8 10 -3 39 -10 66 -17z m553 -74 c14 -9 24 -25 24 -40 0
-20 -5 -24 -37 -27 -21 -2 -53 4 -72 12 -32 14 -34 14 -57 -13 -19 -23 -24
-39 -24 -87 0 -52 3 -62 24 -75 35 -23 91 -16 91 10 0 11 -6 21 -12 21 -7 1
-20 2 -28 3 -19 1 -21 57 -2 63 20 8 98 9 126 3 26 -6 27 -7 23 -78 -2 -43
-10 -78 -18 -86 -9 -10 -42 -16 -101 -19 -117 -5 -190 18 -215 69 -46 89 8
230 98 259 40 13 152 4 180 -15z"/>
<path d="M2080 2610 c-8 -5 -30 -15 -47 -22 -22 -9 -33 -20 -33 -33 0 -23 28
-68 39 -63 3 2 29 27 56 56 39 43 46 55 34 63 -17 11 -29 11 -49 -1z"/>
<path d="M5255 2883 c-32 -31 -8 -78 37 -71 17 2 24 11 26 32 5 45 -33 69 -63
39z"/>
<path d="M2352 2344 c-25 -17 -29 -56 -7 -74 12 -10 20 -9 40 4 28 19 32 47 9
70 -19 19 -15 19 -42 0z"/>
<path d="M4437 2085 c-26 -19 -24 -75 5 -126 29 -52 55 -70 86 -58 40 15 26
86 -35 167 -27 36 -30 37 -56 17z"/>
<path d="M4102 1958 c-16 -16 -15 -60 2 -83 12 -17 18 -18 40 -7 22 10 26 18
26 51 0 26 -5 41 -16 45 -24 9 -39 7 -52 -6z"/>
<path d="M4734 6069 c-15 -25 35 -78 79 -83 13 -1 28 -6 35 -10 17 -10 15 5
-4 32 -9 13 -22 21 -30 18 -7 -3 -15 3 -18 12 -7 21 -54 44 -62 31z"/>
<path d="M4736 5935 c10 -8 26 -14 34 -14 11 0 10 3 -4 14 -11 8 -27 15 -35
15 -11 0 -10 -4 5 -15z"/>
<path d="M5595 5100 c3 -5 8 -10 11 -10 2 0 4 5 4 10 0 6 -5 10 -11 10 -5 0
-7 -4 -4 -10z"/>
<path d="M664 2409 c-19 -21 -21 -58 -9 -135 9 -56 -6 -65 -123 -77 l-97 -9
-2 -50 c-2 -69 -19 -112 -64 -164 -21 -25 -39 -49 -39 -55 0 -5 -4 -9 -9 -9
-5 0 -9 21 -8 48 2 39 -1 47 -15 46 -10 -1 -18 3 -18 8 0 19 -131 -126 -151
-167 l-20 -40 5 39 c3 23 26 72 56 119 54 85 58 109 15 101 -14 -2 -25 -1 -24
3 4 22 -4 31 -29 38 -31 8 -72 42 -72 62 0 11 -37 33 -56 33 -2 0 -4 -43 -4
-95 0 -92 1 -95 23 -96 l22 0 -23 -9 -22 -9 0 -996 0 -995 3488 0 c3097 1
3484 2 3460 16 -30 16 -39 54 -13 54 8 0 15 7 15 15 0 28 34 35 68 13 39 -25
40 -45 5 -75 l-28 -22 163 -1 162 0 0 893 0 892 -26 -43 c-14 -23 -29 -42 -35
-42 -5 0 2 18 16 40 14 22 25 48 25 57 0 15 2 16 10 3 7 -10 10 6 10 55 0 70
-17 123 -54 164 -8 9 -17 33 -21 54 -5 27 -15 42 -34 52 -15 7 -33 21 -40 29
-18 22 -41 19 -72 -7 -32 -27 -61 -84 -48 -93 6 -3 8 -12 6 -19 -3 -6 5 -23
17 -37 22 -22 46 -61 46 -71 0 -3 -39 15 -87 40 -139 70 -173 110 -242 276 -6
15 -15 25 -21 22 -5 -3 -16 8 -25 25 -14 27 -20 30 -63 30 -27 0 -52 -4 -57
-9 -6 -5 -34 -14 -63 -20 -29 -6 -73 -20 -97 -31 -24 -11 -51 -20 -59 -20 -27
0 -101 -37 -121 -61 -11 -14 -27 -37 -35 -53 -8 -16 -30 -43 -47 -60 -18 -17
-32 -37 -30 -45 1 -7 -6 -15 -15 -16 -10 -2 -65 -26 -122 -54 -58 -28 -108
-51 -113 -51 -4 0 -26 -21 -48 -46 -22 -25 -66 -72 -98 -105 -31 -32 -55 -59
-52 -59 3 0 -3 -8 -12 -18 -10 -10 -38 -42 -62 -71 -24 -28 -68 -75 -97 -103
-53 -51 -160 -128 -178 -128 -4 0 -25 -14 -45 -30 -84 -71 -159 -122 -169
-116 -5 3 -18 -2 -28 -12 -32 -28 -83 -62 -92 -62 -5 0 -26 -11 -46 -25 -20
-13 -36 -22 -36 -20 0 2 -23 -9 -50 -25 -28 -17 -54 -30 -58 -30 -4 0 -41 -17
-82 -38 -41 -21 -107 -50 -147 -66 -39 -15 -77 -34 -83 -42 -7 -8 -20 -14 -29
-14 -13 0 -13 -2 -2 -9 10 -6 -2 -12 -40 -20 -53 -10 -109 -20 -140 -24 -8 -2
-26 -13 -39 -25 -13 -12 -40 -24 -59 -28 -20 -3 -72 -12 -116 -21 -47 -9 -168
-18 -294 -22 -158 -4 -215 -9 -219 -18 -5 -18 -27 -16 -42 2 -10 12 -36 15
-114 15 -55 0 -139 5 -186 10 -325 36 -347 39 -329 51 10 6 4 9 -18 9 -18 0
-33 4 -33 8 0 5 -33 15 -72 22 -91 16 -128 29 -125 43 1 6 -13 19 -32 29 -19
9 -39 22 -44 27 -6 6 -19 11 -29 11 -10 0 -18 4 -18 9 0 5 -20 14 -44 20 -25
6 -51 17 -58 25 -8 7 -25 17 -38 21 -14 4 -34 14 -45 21 -11 8 -29 14 -42 14
-12 0 -25 5 -28 10 -3 6 -13 10 -20 10 -17 0 -221 100 -292 143 -53 32 -70 44
-150 105 -24 17 -46 32 -49 32 -13 0 -232 198 -354 320 -111 111 -175 184
-240 270 -63 85 -68 86 -120 36 -25 -24 -62 -49 -83 -56 -32 -10 -42 -9 -70 7
-38 22 -51 65 -17 56 11 -3 29 -17 40 -31 l20 -25 25 23 c26 25 32 40 15 40
-5 0 -10 -7 -10 -17 0 -14 -2 -14 -20 2 -15 14 -17 21 -8 32 12 15 -5 61 -29
76 -7 4 -13 13 -13 18 0 6 -6 17 -14 25 -9 9 -13 27 -10 49 5 40 -16 89 -45
104 -10 6 -34 25 -53 43 -19 18 -56 47 -80 65 -46 32 -46 32 -64 12z m6169
-506 c30 -30 32 -60 4 -77 -24 -15 -105 28 -113 61 -15 58 54 68 109 16z m422
-737 c23 -10 35 -22 35 -35 0 -29 -15 -34 -53 -17 -40 16 -49 28 -41 50 8 20
15 20 59 2z m-6665 -185 c0 -13 -115 -81 -119 -70 -4 13 48 58 67 59 7 0 15 6
18 14 5 14 34 11 34 -3z m5610 -130 c0 -6 -8 -11 -18 -11 -28 0 -110 108 -94
124 8 8 112 -97 112 -113z m-5251 -61 c-13 -16 -25 -28 -27 -25 -5 5 37 55 45
55 2 0 -6 -13 -18 -30z m3528 -122 c-3 -8 -6 -5 -6 6 -1 11 2 17 5 13 3 -3 4
-12 1 -19z m934 -110 c22 -28 24 -51 4 -68 -13 -10 -19 -10 -34 4 -21 19 -35
61 -26 76 10 17 36 11 56 -12z m521 -155 c38 -37 49 -63 26 -63 -13 0 -88 76
-88 90 0 20 25 9 62 -27z m-307 -253 c19 -20 24 -30 14 -30 -21 0 -59 29 -59
46 0 22 13 17 45 -16z"/>
</g>
</svg>
